<?xml version="1.0" standalone="no"?>
<!DOCTYPE svg PUBLIC "-//W3C//DTD SVG 20010904//EN"
 "http://www.w3.org/TR/2001/REC-SVG-20010904/DTD/svg10.dtd">
<svg version="1.0" xmlns="http://www.w3.org/2000/svg"
 width="668.000000pt" height="668.000000pt" viewBox="0 0 668.000000 668.000000"
 preserveAspectRatio="xMidYMid meet">
<metadata>
Created by potrace 1.14, written by Peter Selinger 2001-2017
</metadata>
<g transform="translate(0.000000,668.000000) scale(0.100000,-0.100000)"
fill="#000000" stroke="none">
<path d="M3165 6654 c-315 -24 -541 -64 -790 -139 -770 -232 -1426 -735 -1855
-1420 -139 -222 -273 -516 -353 -775 -254 -824 -178 -1718 212 -2482 415 -815
1126 -1411 1996 -1673 321 -97 610 -139 960 -139 286 0 521 27 776 89 1203
291 2141 1223 2440 2424 304 1220 -110 2512 -1066 3325 -512 436 -1132 702
-1805 775 -105 12 -436 21 -515 15z m475 -305 c564 -56 1091 -269 1560 -630
123 -95 417 -388 510 -509 360 -470 558 -953 631 -1545 16 -129 16 -521 0
-650 -73 -592 -271 -1075 -631 -1545 -93 -121 -387 -414 -510 -509 -468 -361
-970 -564 -1560 -631 -133 -15 -473 -16 -610 -1 -1031 113 -1909 712 -2381
1625 -405 785 -448 1690 -119 2516 55 138 180 380 264 509 461 710 1191 1196
2016 1340 277 48 546 58 830 30z"/>
<path d="M3215 6353 c-898 -36 -1738 -473 -2282 -1189 -280 -369 -481 -826
-564 -1288 -149 -825 57 -1690 564 -2360 362 -479 884 -852 1452 -1038 282
-92 531 -136 848 -152 l97 -4 0 599 c0 472 -3 599 -12 599 -7 0 -67 5 -133 11
-435 37 -821 216 -1130 523 -483 481 -657 1189 -450 1836 200 626 722 1096
1367 1230 74 15 283 39 346 40 9 0 12 127 12 600 l0 600 -22 -2 c-13 -1 -54
-3 -93 -5z"/>
<path d="M3340 3340 c0 -1441 3 -1810 13 -1810 70 1 274 26 362 45 856 185
1457 959 1422 1830 -30 750 -507 1398 -1207 1640 -161 55 -316 86 -507 100
l-83 5 0 -1810z"/>
</g>
</svg>
